<svg xmlns="http://www.w3.org/2000/svg" width="278.617" height="101.552" viewBox="0 0 278.617 101.552"><g transform="translate(-71.508 -298.214)"><path d="M.252,0H11.3l1.325-6.752H28.9L30.607,0H41.966L33.384-32.942,23.223-43.165l-7.636,4.922,7.951,10.034,3.092,12.5H14.515l3.345-16.6a19.8,19.8,0,0,0-11.233,4.67ZM66.2-32.121H74.34L74.971-46.7a19.56,19.56,0,0,0-5.49-.757A30.546,30.546,0,0,0,60.9-46.068a32.726,32.726,0,0,0-3.155,9.087,13.8,13.8,0,0,1,6.311-1.83c1.451,0,2.146.568,2.146,2.335ZM47.519,15.524H58.184v-32H71.121v-8.456H58.184v-4.039L54.966-44.238,46.51-42.345l1.01,14.073v3.534L43.1-24.3v7.825h4.417ZM96.364-16.6h8.267l2.209-18.68a22.364,22.364,0,0,0-5.743-.694,24.578,24.578,0,0,0-8.709,1.7,24.1,24.1,0,0,0-3.534,8.646,12.511,12.511,0,0,1,4.481-1.2c2.4,0,3.029.442,3.029,3.976ZM78.063,0H88.728V-14.073c0-1.7.189-4.165.316-6.121l-3.913-15.84L76.3-33.951l1.767,14.515Zm48.592.694c4.733,0,9.4-.947,11.107-2.209,1.767-1.262,5.68-6.058,5.68-15.777,0-14.01-4.165-18.68-16.218-18.68a27.569,27.569,0,0,0-4.481.5,26.745,26.745,0,0,0-3.408,8.961,25.878,25.878,0,0,1,7.068-1.136c5.112,0,6.437,2.966,6.437,10.034,0,5.68-1.01,8.393-2.461,9.214a9.3,9.3,0,0,1-3.723.694c-5.238,0-6.879-1.767-6.879-9.908a26.544,26.544,0,0,1,.442-4.354c-.883-2.777-5.049-8.33-7.447-10.728-1.893,3.282-3.6,9.15-3.6,15.4C109.175-4.291,114.1.694,126.655.694Zm36.665,0A33.154,33.154,0,0,0,171.84-.442l-.063-8.772c-1.451.126-4.291.252-5.869.252a6.068,6.068,0,0,1-3.408-.82c-1.01-.757-1.262-2.65-1.262-4.417V-25.748a40.973,40.973,0,0,0-10.665,5.553v8.709c0,3.723.757,8.519,3.345,10.223C156.252.316,160.544.694,163.32.694Zm-16.85-27.7h25.053V-35.15h-10.35v-6.942H153.6l-2.146,6.879-4.985.757ZM193.99.694A54.19,54.19,0,0,0,206.3-.568V-8.9c-2.714.316-7.888.694-11.044.694-6.121,0-9.4-1.578-10.034-5.869h22.024a60.8,60.8,0,0,0,.82-9.087c0-9.087-5.112-12.811-14.893-12.811A26.926,26.926,0,0,0,188-35.4a22.666,22.666,0,0,0-3.029,8.519,29.3,29.3,0,0,1,6.5-.947c4.67,0,6.5,1.2,6.5,4.544a9.729,9.729,0,0,1-.126,1.515l-12.748.5a8.478,8.478,0,0,1,.316-2.019c-.883-2.9-4.417-8.015-6.374-9.908-2.209,3.786-4.1,11.359-4.1,16.85C174.932-4.922,181.053.694,193.99.694Zm36.1,0A47.1,47.1,0,0,0,240.752-.442V-9.024a83.167,83.167,0,0,1-8.772.631c-7.068,0-9.592-3.092-9.592-9.34a19.924,19.924,0,0,1,.442-4.1,43.49,43.49,0,0,0-7.447-9.592,36.72,36.72,0,0,0-3.66,15.083C211.723-5.049,218.286.694,230.087.694Zm-8.519-27.2a64.73,64.73,0,0,1,8.2-.631c3.345,0,7.762.189,10.6.442V-35.34a70.016,70.016,0,0,0-8.9-.631,50.121,50.121,0,0,0-7,.5A31.118,31.118,0,0,0,221.568-26.5ZM268.2,0h10.665V-21.772c0-10.16-3.534-14.2-11.3-14.2a29.43,29.43,0,0,0-5.364.442c-1.388,1.893-3.282,6.689-4.039,9.592a20.769,20.769,0,0,1,4.544-.631c4.8,0,5.49,1.956,5.49,7.383ZM245.99,0h10.665V-46.573H245.99Z" transform="translate(71.255 345.67)" fill="#fff"/><path d="M23.03-28.861v-.1c0-1.176-2.45-1.568-4.116-1.568-2.548,0-4.312.637-6.517.637-.245,0-.441-.049-.637-.049-.539,0-1.47.931-2.009.931-.784,0-1.421-.343-1.96-.343-1.029,0-2.94,2.058-2.94,2.842,0,.735.735,1.372.784,2.156a5.382,5.382,0,0,0-.588,2.646c0,.784.1,1.568.147,2.3a25.733,25.733,0,0,0-1.176,8.036c0,5.635.441,10.78,6.321,10.78,1.568,0,4.606-.392,5.243-.931.833-.686,1.862-.49,2.5-1.029,1.323-1.127,5-1.519,5-3.626,0-.637-.343-1.47-.833-1.47-.147,0-.294.1-.49.343-1.078,1.47-2.695,1.813-4.312,2.5A14.177,14.177,0,0,1,11.907-3.43a28.888,28.888,0,0,1-2.891-.294c-.784-.049-1.96-2.009-1.96-3.087v-3.822c0-1.372-.049-1.764,1.568-2.058A16.615,16.615,0,0,0,12.2-14.014c.784-.294,2.45-.441,2.989-1.127s1.519-.343,2.2-.98c.49-.49,2.107-.147,2.107-1.127,0-.686-.049-.882-.147-.882-.2,0-.588.294-.833.294-.392,0-.784-.294-1.127-.1-.294.2-.441.441-.784.441a12.1,12.1,0,0,0-2.793.833,24.193,24.193,0,0,1-5.439,1.176c-.735,0-.98-.441-.98-1.274,0-1.225.588-3.038.588-3.675a11.75,11.75,0,0,1,.882-5.194c.784-1.568,2.009-.637,3.234-1.274a15.151,15.151,0,0,1,6.223-1.372c.294,0,1.274.1,2.254.1C21.805-28.175,23.03-28.322,23.03-28.861Zm24.3,7.546c.147-.49-.735-2.3-1.617-2.3-.637,0-1.666,1.519-1.862,2.4-.147.637-.882.539-.98,1.176s-.833.539-.931,1.176c-.1.686-.882,1.176-1.225,1.813-1.323,2.5-2.156,5.1-4.165,7.252a10.03,10.03,0,0,0-1.911,2.4c-.343.735-1.078,2.156-1.96,2.3-.2-.49-.637-2.254-1.078-2.5-.49-.294-.588-1.96-.784-2.5-.294-.588-.294-1.127-.735-1.617-.49-.539-.294-1.617-.441-2.3-.245-.931-.637-1.764-.931-2.6-.2-.539-1.715-2.94-3.479-2.94a1.484,1.484,0,0,0-1.274.784c.049,1.127.833,1.666,1.519,2.4,1.421,1.519,1.176,4.214,2.5,6.321a9.061,9.061,0,0,0,.98,3.577c.637,1.323.588,3.038,1.372,3.724.343.784.294,1.911,1.617,1.911a3.838,3.838,0,0,0,2.842-.98c.2-.2.1-.539.245-.735,1.519-2.3,2.989-6.076,4.753-7.1.686-.392,1.127-2.45,1.568-3.234.98-1.764,2.548-4.7,2.94-4.9.343-.2.539-.784.686-.98C45.668-19.6,46.991-20.237,47.334-21.315ZM48.608-.98a4.43,4.43,0,0,0,4.116,2.4c2.695,0,5.782-1.764,7.644-3.332a11.594,11.594,0,0,1,1.666-1.421c.637-.343.637-.784,1.029-1.323.441-.588.98-.588,1.274-1.225A7.589,7.589,0,0,1,65.366-7.6c.49-.686,2.695-3.332,2.695-4.949a1.065,1.065,0,0,0-1.078-1.127c-1.078-.049-1.911,1.911-2.5,2.45-.784.686-.931,2.2-1.715,2.989-2.793,2.744-5.978,6.664-10.192,7.056-1.666-.539-2.156-2.3-2.156-4.312A24.9,24.9,0,0,1,51.45-11.76c.49-1.813,3.087-1.519,5.145-2.205,3.234-1.078,9.9-1.078,9.9-3.969,0-2.989-2.548-7.693-6.027-7.693-4.606-.049-7.2,4.606-9.163,7.693-.588.882-1.372,2.842-1.813,3.087-.294.147-.637.245-.637.686,0,.588.343.882.343,1.323a.912.912,0,0,1-.2.539c-.686,1.274-.98,4.9-.98,7.154A14.5,14.5,0,0,0,48.608-.98ZM62.377-22.3A4.2,4.2,0,0,1,63.9-19.453c0,2.6-6.321,2.842-10.339,3.185a10.338,10.338,0,0,1,2.842-4.7c.686-.588,1.225-1.568,2.254-1.715.343,0,.49-.343.784-.392A3.724,3.724,0,0,1,62.377-22.3Zm28.518,6.468c0-3.822-1.127-6.615-3.773-6.615-2.695,0-4.655,2.45-6.664,3.969-2.058,1.568-3.038,5.1-4.851,5.684,0-2.6.049-2.3.049-4.949,0-1.568-.343-3.871-1.225-4.263-.637-.294-1.862.931-1.862,1.715,0,.539.2,1.176.245,1.666a21.086,21.086,0,0,1,.2,3.038c0,2.107-.049,3.332,0,4.263.049,1.225-.049,1.862-.049,2.989a16.228,16.228,0,0,1-.686,5.537,6.622,6.622,0,0,0-.539,2.2c0,.735.245,1.323,1.078,1.323A.741.741,0,0,0,73.5.392c.637-.931,1.862.686,1.862-2.45A21.7,21.7,0,0,1,75.8-4.9a19.428,19.428,0,0,1,3.773-9.065c.637-.882.931-1.617,1.862-2.107,2.548-1.421,2.6-3.528,5.341-3.528,1.764,0,1.519,5.194,1.519,5.782,0,1.372-.147,2.744-.147,4.165v.98c0,1.372-.637,2.3-.637,3.577,0,.98-.441,1.715-.441,2.891,0,.686.343,1.225,1.078,1.225,1.127,0,2.45-.833,2.45-1.568,0-.637.049-1.274.049-1.911,0-1.323.245-1.47.245-2.695,0-.343-.049-.637-.049-.98,0-.686.441-1.176.441-1.862,0-.49-.2-1.029-.245-1.519C90.944-12.936,90.993-14.406,90.895-15.827Zm14.6-17.3a1.1,1.1,0,0,0-.735-.2c-.931,0-2.205.539-2.205,1.176,0,2.5-.147,5.047-.147,7.546,0,.343.1,1.176.1,1.862,0,.539-.049,1.029-.294,1.127l-3.92.441A8.256,8.256,0,0,0,93.688-19.6c-.441.392-1.666,1.274-1.666,2.009,0,.441.539.882,1.225.882a3.786,3.786,0,0,0,1.764-.686,13.393,13.393,0,0,1,6.517-1.274c.784,0,.98.931.98,1.813a73.427,73.427,0,0,1-.833,12.3,2.82,2.82,0,0,1-.539,1.666c-.2.245-.833.833-.833,1.274A2.143,2.143,0,0,0,101.92-.49a2.956,2.956,0,0,0,2.793-2.793c0-.882-.147-1.862-.147-2.352,0-3.724.735-7.6.735-11.466,0-.343-.1-.735-.1-1.029a.74.74,0,0,1,.588-.833l1.666-.441c1.078-.245,8.624-1.372,8.624-3.626a.591.591,0,0,0-.637-.637,1.218,1.218,0,0,0-.392.049,41.14,41.14,0,0,1-9.8,1.764c0-.882.1-1.813.1-2.695,0-.735-.294-1.519-.294-2.3,0-1.47.637-3.087.637-4.655A6.087,6.087,0,0,0,105.5-33.124Zm28.812,12.5c0-2.4-2.058-3.038-4.214-3.038-1.96,0-3.528.931-5.341.931-.441,0-1.47.98-1.911,1.225-1.862,1.127-4.7,3.381-4.7,6.419,0,3.724,3.969,3.773,6.174,5,.882.49,2.3.392,3.381.98.588.343.539.441.98.441,2.058,0,3.185,1.47,3.185,2.009,0,2.6-7.35,4.949-11.27,4.949-2.646,0-3.528-2.7-4.606-2.7-.686.147-.931.784-.931,1.47,0,3.332,2.989,3.528,5.292,3.528,4.557,0,10.094-1.176,13.328-4.8a3.137,3.137,0,0,0,.98-2.4c0-2.107-1.029-2.695-2.3-3.479-.637-.392-2.058-.784-2.7-1.078a12.648,12.648,0,0,0-2.254-.882l-2.5-.637c-1.568-.392-3.332-.784-3.773-2.548a4.564,4.564,0,0,1,2.4-3.577c.539-.245.833-1.029,1.372-1.127a16.131,16.131,0,0,1,5.88-1.176c.833.147,1.176.931,2.107.931C133.378-20.188,134.211-20.286,134.309-20.629Z" transform="translate(155.587 398.918) rotate(-8)" fill="#3b3b3b"/></g></svg>